<?xml version="1.0" encoding="utf-8"?>
<!-- Generator: Adobe Illustrator 24.0.3, SVG Export Plug-In . SVG Version: 6.00 Build 0)  -->
<svg version="1.1" id="Layer_1" xmlns="http://www.w3.org/2000/svg" xmlns:xlink="http://www.w3.org/1999/xlink" x="0px" y="0px"
	 viewBox="0 0 60 49" style="enable-background:new 0 0 60 49;" xml:space="preserve">
<style type="text/css">
	.st0{fill:#E5F2F6;}
</style>
<title>quote-left-white</title>
<desc>Created with Sketch.</desc>
<g id="Assets">
	<g id="quote-left-white" transform="translate(-2206.000000, -2418.000000)">
		<path class="st0" d="M2218.8,2466.6c-3.6,0-6.7-1.2-9.1-3.5s-3.7-5.2-3.7-8.8c0-1.8,0.3-3.7,0.9-5.6s1.6-4.5,3.1-7.6l11.1-23.1
			h12.2l-7,26.2c3.6,2.5,5.4,5.9,5.4,10.2c0,3.5-1.2,6.4-3.7,8.8C2225.4,2465.5,2222.4,2466.6,2218.8,2466.6z M2251.6,2466.6
			c-3.6,0-6.7-1.2-9.1-3.5c-2.4-2.3-3.7-5.2-3.7-8.8c0-1.8,0.3-3.7,0.8-5.6s1.6-4.5,3.1-7.6l11.1-23.1h12.2l-7,26.2
			c3.6,2.5,5.4,5.9,5.4,10.2c0,3.5-1.2,6.4-3.7,8.8S2255.2,2466.6,2251.6,2466.6z"/>
	</g>
</g>
</svg>
